<svg width="16" height="16" viewBox="0 0 16 16" fill="none" xmlns="http://www.w3.org/2000/svg" stroke="#B5B5B5" stroke-width="1.5">
  <path d="M5.77013 1.57385H4.46143C2.80457 1.57385 1.46143 2.917 1.46143 4.57385V11.5C1.46143 13.1568 2.80457 14.5 4.46143 14.5H11.3875C13.0444 14.5 14.3875 13.1568 14.3875 11.5V10.1913"  stroke-linecap="round"/>
  <path d="M8.25969 10.5216C7.91328 10.868 7.45178 11.0752 6.96273 11.1039L5.36996 11.1974C5.07113 11.215 4.82396 10.9678 4.8415 10.669L4.93504 9.07622C4.96376 8.58717 5.17098 8.12566 5.51739 7.77925L10.4255 2.87119C11.1827 2.11392 12.4105 2.11392 13.1678 2.87119V2.87119C13.925 3.62845 13.925 4.85622 13.1678 5.61349L8.25969 10.5216Z" />
</svg>
