<svg width="16" height="16" viewBox="0 0 16 16" fill="none" xmlns="http://www.w3.org/2000/svg" stroke="#B5B5B5" stroke-width="1.5">
<path d="M6.34152 2.21597C7.13433 1.03992 8.86542 1.03992 9.65824 2.21597L10.0181 2.74985C10.3625 3.26063 10.923 3.58424 11.5375 3.62705L12.1798 3.6718C13.5947 3.77037 14.4603 5.26954 13.8382 6.54417L13.5558 7.1228C13.2856 7.67639 13.2856 8.32361 13.5558 8.8772L13.8382 9.45583C14.4603 10.7305 13.5947 12.2296 12.1798 12.3282L11.5375 12.3729C10.923 12.4158 10.3625 12.7394 10.0181 13.2502L9.65824 13.784C8.86542 14.9601 7.13433 14.9601 6.34152 13.784L5.98161 13.2502C5.63727 12.7394 5.07677 12.4158 4.46225 12.3729L3.81994 12.3282C2.40504 12.2296 1.5395 10.7305 2.16158 9.45583L2.44398 8.8772C2.71416 8.32361 2.71416 7.67639 2.44398 7.1228L2.16158 6.54417C1.5395 5.26954 2.40504 3.77037 3.81994 3.6718L4.46225 3.62705C5.07677 3.58424 5.63727 3.26063 5.98161 2.74985L6.34152 2.21597Z" />
<circle cx="8" cy="7.99988" r="1.71875" />
</svg>
